# xmcd CD database file
# Generated: Mon Sep 8 02:35:06 2003 by KSCD
# 
# Track frame offsets:
#       150
#       17772
#       34098
#       50946
#       57019
#       74950
#       88952
#       115927
#       136920
#       160092
#       186477
#       203600
#       226122
#       246835
#       260057
#       282452
#
# Disc length: 4248 seconds
#
# Revision: 1
# Processed by: cddbd v1.4PL0 Copyright (c) Steve Scherf et al.
# Submitted via: Kscd 1.3.3
#
DISCID=f4109610
DTITLE=Cory Morrow - Full Exposure Live
DYEAR=2003
DGENRE=Country
TTITLE0=Nothing Better
TTITLE1=GTMO Blues
TTITLE2=21 Days
TTITLE3=Intro
TTITLE4=Texas Time Travelin'
TTITLE5=Live Forever
TTITLE6=Drinkin Alone
TTITLE7=The Highway
TTITLE8=Light On The Stage
TTITLE9=Medley
TTITLE10=Love Me
TTITLE11=Songwriter's Lament
TTITLE12=Straight To Hell
TTITLE13=Are You Sure Hank Done It This Way
TTITLE14=Big City Stripper
TTITLE15=Beer
EXTD=Country
EXTT0=
EXTT1=
EXTT2=
EXTT3=
EXTT4=
EXTT5=
EXTT6=
EXTT7=
EXTT8=
EXTT9=
EXTT10=
EXTT11=
EXTT12=
EXTT13=
EXTT14=
EXTT15=
PLAYORDER=
